<mxfile host="app.diagrams.net" modified="2023-05-11T06:25:56.217Z" agent="Mozilla/5.0 (Linux; Android 10; K) AppleWebKit/537.36 (KHTML, like Gecko) Chrome/113.0.0.0 Safari/537.36" etag="NHn0xz6Gw9wSMSMwIM-_" version="21.2.9" type="github" pages="2">
  <diagram id="Be5qnFAFQZROCHPcmchN" name="InputSystem">
    <mxGraphModel dx="719" dy="1032" grid="1" gridSize="10" guides="1" tooltips="1" connect="1" arrows="1" fold="1" page="1" pageScale="1" pageWidth="827" pageHeight="1169" math="0" shadow="0">
      <root>
        <mxCell id="0" />
        <mxCell id="1" parent="0" />
      </root>
    </mxGraphModel>
  </diagram>
  <diagram id="kgpKYQtTHZ0yAKxKKP6v" name="RequestPlayerAction.Seq">
    <mxGraphModel dx="301" dy="219" grid="1" gridSize="10" guides="1" tooltips="1" connect="1" arrows="1" fold="1" page="0" pageScale="1" pageWidth="1200" pageHeight="1600" math="0" shadow="0">
      <root>
        <mxCell id="0" />
        <mxCell id="1" parent="0" />
        <mxCell id="s5ElTUS3fv4YaKfRwLbb-17" value="alt" style="shape=umlFrame;whiteSpace=wrap;html=1;points=[[0,0.5,0,0,0],[1,0.5,0,0,0]];" parent="1" vertex="1">
          <mxGeometry y="660" width="1080" height="740" as="geometry" />
        </mxCell>
        <mxCell id="lVmgvT4mVXbGSSPLRBOS-20" value="loop" style="shape=umlFrame;whiteSpace=wrap;html=1;width=50;height=30;" parent="1" vertex="1">
          <mxGeometry x="90" y="160" width="300" height="240" as="geometry" />
        </mxCell>
        <mxCell id="lVmgvT4mVXbGSSPLRBOS-10" value=":MouseButtonActor" style="shape=umlLifeline;perimeter=lifelinePerimeter;whiteSpace=wrap;html=1;container=1;collapsible=0;recursiveResize=0;outlineConnect=0;size=20;" parent="1" vertex="1">
          <mxGeometry x="430" y="130" width="100" height="1270" as="geometry" />
        </mxCell>
        <mxCell id="lVmgvT4mVXbGSSPLRBOS-36" value="" style="html=1;points=[];perimeter=orthogonalPerimeter;" parent="lVmgvT4mVXbGSSPLRBOS-10" vertex="1">
          <mxGeometry x="45" y="310" width="10" height="120" as="geometry" />
        </mxCell>
        <mxCell id="4RQ-VIBzeEV3jVswOoUv-1" value="" style="html=1;verticalAlign=bottom;endArrow=none;rounded=0;" parent="lVmgvT4mVXbGSSPLRBOS-10" source="lVmgvT4mVXbGSSPLRBOS-36" target="lVmgvT4mVXbGSSPLRBOS-10" edge="1">
          <mxGeometry x="0.0071" width="80" relative="1" as="geometry">
            <mxPoint x="55" y="430" as="sourcePoint" />
            <mxPoint x="195" y="430" as="targetPoint" />
            <Array as="points" />
            <mxPoint x="1" as="offset" />
          </mxGeometry>
        </mxCell>
        <mxCell id="lVmgvT4mVXbGSSPLRBOS-12" value=":TurnManage" style="shape=umlLifeline;perimeter=lifelinePerimeter;whiteSpace=wrap;html=1;container=1;collapsible=0;recursiveResize=0;outlineConnect=0;size=20;" parent="1" vertex="1">
          <mxGeometry x="870" y="130" width="100" height="1270" as="geometry" />
        </mxCell>
        <mxCell id="lVmgvT4mVXbGSSPLRBOS-13" value=":Stamina" style="shape=umlLifeline;perimeter=lifelinePerimeter;whiteSpace=wrap;html=1;container=1;collapsible=0;recursiveResize=0;outlineConnect=0;size=20;" parent="1" vertex="1">
          <mxGeometry x="720" y="130" width="100" height="1270" as="geometry" />
        </mxCell>
        <mxCell id="s5ElTUS3fv4YaKfRwLbb-15" value="" style="html=1;points=[];perimeter=orthogonalPerimeter;" parent="lVmgvT4mVXbGSSPLRBOS-13" vertex="1">
          <mxGeometry x="45" y="450" width="10" height="60" as="geometry" />
        </mxCell>
        <mxCell id="lVmgvT4mVXbGSSPLRBOS-14" value=":MouseAction" style="shape=umlLifeline;perimeter=lifelinePerimeter;whiteSpace=wrap;html=1;container=1;collapsible=0;recursiveResize=0;outlineConnect=0;size=20;" parent="1" vertex="1">
          <mxGeometry x="280" y="130" width="100" height="1270" as="geometry" />
        </mxCell>
        <mxCell id="lVmgvT4mVXbGSSPLRBOS-39" value="" style="html=1;points=[];perimeter=orthogonalPerimeter;" parent="lVmgvT4mVXbGSSPLRBOS-14" vertex="1">
          <mxGeometry x="45" y="350" width="10" height="30" as="geometry" />
        </mxCell>
        <mxCell id="lVmgvT4mVXbGSSPLRBOS-16" value="" style="shape=umlLifeline;participant=umlActor;perimeter=lifelinePerimeter;whiteSpace=wrap;html=1;container=1;collapsible=0;recursiveResize=0;verticalAlign=top;spacingTop=36;outlineConnect=0;size=40;" parent="1" vertex="1">
          <mxGeometry x="50" y="110" width="20" height="1290" as="geometry" />
        </mxCell>
        <mxCell id="lVmgvT4mVXbGSSPLRBOS-17" value=":Network" style="shape=umlLifeline;perimeter=lifelinePerimeter;whiteSpace=wrap;html=1;container=1;collapsible=0;recursiveResize=0;outlineConnect=0;size=20;" parent="1" vertex="1">
          <mxGeometry x="1020" y="130" width="100" height="1270" as="geometry" />
        </mxCell>
        <mxCell id="s5ElTUS3fv4YaKfRwLbb-26" value="" style="html=1;points=[];perimeter=orthogonalPerimeter;" parent="lVmgvT4mVXbGSSPLRBOS-17" vertex="1">
          <mxGeometry x="45" y="750" width="10" height="310" as="geometry" />
        </mxCell>
        <mxCell id="lVmgvT4mVXbGSSPLRBOS-19" value=":MouseAxisActor" style="shape=umlLifeline;perimeter=lifelinePerimeter;whiteSpace=wrap;html=1;container=1;collapsible=0;recursiveResize=0;outlineConnect=0;size=20;" parent="1" vertex="1">
          <mxGeometry x="130" y="130" width="110" height="1270" as="geometry" />
        </mxCell>
        <mxCell id="lVmgvT4mVXbGSSPLRBOS-21" value="" style="html=1;points=[];perimeter=orthogonalPerimeter;" parent="lVmgvT4mVXbGSSPLRBOS-19" vertex="1">
          <mxGeometry x="45" y="60" width="10" height="110" as="geometry" />
        </mxCell>
        <mxCell id="lVmgvT4mVXbGSSPLRBOS-33" value="" style="group" parent="1" vertex="1" connectable="0">
          <mxGeometry x="100" y="200" width="280" height="190" as="geometry" />
        </mxCell>
        <mxCell id="lVmgvT4mVXbGSSPLRBOS-25" value="opt" style="shape=umlFrame;whiteSpace=wrap;html=1;" parent="lVmgvT4mVXbGSSPLRBOS-33" vertex="1">
          <mxGeometry width="280" height="190" as="geometry" />
        </mxCell>
        <mxCell id="lVmgvT4mVXbGSSPLRBOS-26" value="[Physics.Raycast() == true]" style="text;html=1;align=center;verticalAlign=middle;resizable=0;points=[];autosize=1;strokeColor=none;fillColor=none;" parent="lVmgvT4mVXbGSSPLRBOS-33" vertex="1">
          <mxGeometry x="-9.999999999999998" y="140.00307692307692" width="170" height="30" as="geometry" />
        </mxCell>
        <mxCell id="lVmgvT4mVXbGSSPLRBOS-34" value="[TryGetComponent&amp;lt;Tile&amp;gt;() == true]" style="text;html=1;align=center;verticalAlign=middle;resizable=0;points=[];autosize=1;strokeColor=none;fillColor=none;" parent="lVmgvT4mVXbGSSPLRBOS-33" vertex="1">
          <mxGeometry x="-9.999999999999998" y="160" width="210" height="30" as="geometry" />
        </mxCell>
        <mxCell id="lVmgvT4mVXbGSSPLRBOS-22" value="" style="html=1;points=[];perimeter=orthogonalPerimeter;" parent="lVmgvT4mVXbGSSPLRBOS-33" vertex="1">
          <mxGeometry x="214.99999999999997" y="100" width="9.999999999999998" height="80" as="geometry" />
        </mxCell>
        <mxCell id="lVmgvT4mVXbGSSPLRBOS-23" value="SetPointedTile(Tile) : void" style="html=1;verticalAlign=bottom;endArrow=block;rounded=0;entryX=-0.02;entryY=-0.005;entryDx=0;entryDy=0;entryPerimeter=0;" parent="1" target="lVmgvT4mVXbGSSPLRBOS-22" edge="1">
          <mxGeometry x="0.231" width="80" relative="1" as="geometry">
            <mxPoint x="179.5" y="299.6" as="sourcePoint" />
            <mxPoint x="562.5" y="380" as="targetPoint" />
            <mxPoint as="offset" />
          </mxGeometry>
        </mxCell>
        <mxCell id="lVmgvT4mVXbGSSPLRBOS-35" value="Mouse 0 Down" style="html=1;verticalAlign=bottom;startArrow=oval;startFill=1;endArrow=block;startSize=8;rounded=0;" parent="1" source="lVmgvT4mVXbGSSPLRBOS-16" target="lVmgvT4mVXbGSSPLRBOS-36" edge="1">
          <mxGeometry width="60" relative="1" as="geometry">
            <mxPoint x="100" y="440" as="sourcePoint" />
            <mxPoint x="459.5" y="440" as="targetPoint" />
            <Array as="points">
              <mxPoint x="270" y="440" />
            </Array>
          </mxGeometry>
        </mxCell>
        <mxCell id="lVmgvT4mVXbGSSPLRBOS-41" value=":PlayerAction" style="shape=umlLifeline;perimeter=lifelinePerimeter;whiteSpace=wrap;html=1;container=1;collapsible=0;recursiveResize=0;outlineConnect=0;size=20;" parent="1" vertex="1">
          <mxGeometry x="580" y="130" width="100" height="1270" as="geometry" />
        </mxCell>
        <mxCell id="s5ElTUS3fv4YaKfRwLbb-3" value="" style="html=1;points=[];perimeter=orthogonalPerimeter;" parent="lVmgvT4mVXbGSSPLRBOS-41" vertex="1">
          <mxGeometry x="45" y="430" width="10" height="280" as="geometry" />
        </mxCell>
        <mxCell id="s5ElTUS3fv4YaKfRwLbb-1" value="GetTileIndex() : int" style="html=1;verticalAlign=bottom;endArrow=block;rounded=0;" parent="1" source="lVmgvT4mVXbGSSPLRBOS-36" target="lVmgvT4mVXbGSSPLRBOS-39" edge="1">
          <mxGeometry width="80" relative="1" as="geometry">
            <mxPoint x="450" y="480" as="sourcePoint" />
            <mxPoint x="319.5" y="480" as="targetPoint" />
            <Array as="points">
              <mxPoint x="390" y="480" />
            </Array>
          </mxGeometry>
        </mxCell>
        <mxCell id="s5ElTUS3fv4YaKfRwLbb-2" value="TileIndex : int" style="html=1;verticalAlign=bottom;endArrow=open;dashed=1;endSize=8;rounded=0;" parent="1" source="lVmgvT4mVXbGSSPLRBOS-39" target="lVmgvT4mVXbGSSPLRBOS-36" edge="1">
          <mxGeometry y="-20" relative="1" as="geometry">
            <mxPoint x="420" y="520" as="sourcePoint" />
            <mxPoint x="340" y="520" as="targetPoint" />
            <Array as="points">
              <mxPoint x="390" y="510" />
            </Array>
            <mxPoint as="offset" />
          </mxGeometry>
        </mxCell>
        <mxCell id="s5ElTUS3fv4YaKfRwLbb-4" value="RequestActToTile(int) : void" style="html=1;verticalAlign=bottom;endArrow=block;rounded=0;startArrow=none;" parent="1" source="lVmgvT4mVXbGSSPLRBOS-36" target="s5ElTUS3fv4YaKfRwLbb-3" edge="1">
          <mxGeometry x="0.0071" width="80" relative="1" as="geometry">
            <mxPoint x="490" y="560" as="sourcePoint" />
            <mxPoint x="570" y="630" as="targetPoint" />
            <Array as="points" />
            <mxPoint x="1" as="offset" />
          </mxGeometry>
        </mxCell>
        <mxCell id="s5ElTUS3fv4YaKfRwLbb-12" value="CalculateStamina(int) : bool" style="html=1;verticalAlign=bottom;endArrow=block;rounded=0;" parent="1" source="s5ElTUS3fv4YaKfRwLbb-3" target="s5ElTUS3fv4YaKfRwLbb-15" edge="1">
          <mxGeometry width="80" relative="1" as="geometry">
            <mxPoint x="620" y="650" as="sourcePoint" />
            <mxPoint x="765" y="590" as="targetPoint" />
            <Array as="points">
              <mxPoint x="680" y="588" />
            </Array>
          </mxGeometry>
        </mxCell>
        <mxCell id="s5ElTUS3fv4YaKfRwLbb-19" value="return" style="html=1;verticalAlign=bottom;endArrow=open;dashed=1;endSize=8;rounded=0;" parent="1" source="lVmgvT4mVXbGSSPLRBOS-13" target="s5ElTUS3fv4YaKfRwLbb-3" edge="1">
          <mxGeometry x="-0.2639" y="-20" relative="1" as="geometry">
            <mxPoint x="710" y="650" as="sourcePoint" />
            <mxPoint x="640" y="640" as="targetPoint" />
            <Array as="points">
              <mxPoint x="700" y="640" />
              <mxPoint x="670" y="640" />
            </Array>
            <mxPoint as="offset" />
          </mxGeometry>
        </mxCell>
        <mxCell id="s5ElTUS3fv4YaKfRwLbb-23" value="Send(Packet) : void" style="html=1;verticalAlign=bottom;endArrow=open;rounded=0;endFill=0;" parent="1" source="s5ElTUS3fv4YaKfRwLbb-3" target="lVmgvT4mVXbGSSPLRBOS-17" edge="1">
          <mxGeometry width="80" relative="1" as="geometry">
            <mxPoint x="660" y="710" as="sourcePoint" />
            <mxPoint x="740" y="710" as="targetPoint" />
            <Array as="points">
              <mxPoint x="850" y="840" />
            </Array>
          </mxGeometry>
        </mxCell>
        <mxCell id="s5ElTUS3fv4YaKfRwLbb-18" value="[CalculateStamina(int) : bool&amp;nbsp;== true]" style="text;html=1;align=left;verticalAlign=middle;resizable=0;points=[];autosize=1;strokeColor=none;fillColor=none;" parent="1" vertex="1">
          <mxGeometry x="-5.684341886080802e-14" y="800" width="220" height="30" as="geometry" />
        </mxCell>
        <mxCell id="s5ElTUS3fv4YaKfRwLbb-27" value="현재 턴잡이가 한 턴을 사용함" style="html=1;verticalAlign=bottom;endArrow=block;rounded=0;" parent="1" source="s5ElTUS3fv4YaKfRwLbb-26" target="lVmgvT4mVXbGSSPLRBOS-12" edge="1">
          <mxGeometry x="0.0297" y="-10" width="80" relative="1" as="geometry">
            <mxPoint x="960" y="810" as="sourcePoint" />
            <mxPoint x="1040" y="810" as="targetPoint" />
            <Array as="points">
              <mxPoint x="1000" y="880" />
            </Array>
            <mxPoint as="offset" />
          </mxGeometry>
        </mxCell>
        <mxCell id="s5ElTUS3fv4YaKfRwLbb-28" value="액터 이동" style="html=1;verticalAlign=bottom;endArrow=block;rounded=0;" parent="1" source="s5ElTUS3fv4YaKfRwLbb-26" target="lVmgvT4mVXbGSSPLRBOS-16" edge="1">
          <mxGeometry width="80" relative="1" as="geometry">
            <mxPoint x="510" y="630" as="sourcePoint" />
            <mxPoint x="70" y="940" as="targetPoint" />
            <Array as="points">
              <mxPoint x="560" y="940" />
            </Array>
          </mxGeometry>
        </mxCell>
        <mxCell id="4RQ-VIBzeEV3jVswOoUv-5" value="" style="line;strokeWidth=1;fillColor=none;align=left;verticalAlign=middle;spacingTop=-1;spacingLeft=3;spacingRight=3;rotatable=0;labelPosition=right;points=[];portConstraint=eastwest;strokeColor=inherit;" parent="1" vertex="1">
          <mxGeometry y="792" width="1080" height="8" as="geometry" />
        </mxCell>
        <mxCell id="4RQ-VIBzeEV3jVswOoUv-8" value="[CalculateStamina(int) : bool&amp;nbsp;== false]" style="text;html=1;align=left;verticalAlign=middle;resizable=0;points=[];autosize=1;strokeColor=none;fillColor=none;" parent="1" vertex="1">
          <mxGeometry x="-5.684341886080802e-14" y="770" width="220" height="30" as="geometry" />
        </mxCell>
        <mxCell id="4RQ-VIBzeEV3jVswOoUv-9" value="이동불가 판정 알림" style="html=1;verticalAlign=bottom;endArrow=block;rounded=0;" parent="1" source="s5ElTUS3fv4YaKfRwLbb-3" target="lVmgvT4mVXbGSSPLRBOS-16" edge="1">
          <mxGeometry width="80" relative="1" as="geometry">
            <mxPoint x="360" y="840" as="sourcePoint" />
            <mxPoint x="440" y="840" as="targetPoint" />
            <Array as="points">
              <mxPoint x="550" y="730" />
            </Array>
          </mxGeometry>
        </mxCell>
        <mxCell id="jEAuUxKRGGyulipGkgVd-1" value="UseStamina() : void" style="html=1;verticalAlign=bottom;endArrow=block;rounded=0;" parent="1" source="s5ElTUS3fv4YaKfRwLbb-26" target="lVmgvT4mVXbGSSPLRBOS-13" edge="1">
          <mxGeometry x="-0.4919" y="-5" width="80" relative="1" as="geometry">
            <mxPoint x="660" y="1050" as="sourcePoint" />
            <mxPoint x="740" y="1050" as="targetPoint" />
            <mxPoint as="offset" />
            <Array as="points">
              <mxPoint x="930" y="970" />
            </Array>
          </mxGeometry>
        </mxCell>
        <mxCell id="jEAuUxKRGGyulipGkgVd-2" value="opt" style="shape=umlFrame;whiteSpace=wrap;html=1;" parent="1" vertex="1">
          <mxGeometry x="850" y="1130" width="240" height="200" as="geometry" />
        </mxCell>
        <mxCell id="jEAuUxKRGGyulipGkgVd-3" value="[StaminaLeft == 0]" style="text;html=1;align=center;verticalAlign=middle;resizable=0;points=[];autosize=1;strokeColor=none;fillColor=none;" parent="1" vertex="1">
          <mxGeometry x="850" y="1300" width="120" height="30" as="geometry" />
        </mxCell>
        <mxCell id="jEAuUxKRGGyulipGkgVd-4" value="TurnChangedTo(Player) : void" style="html=1;verticalAlign=bottom;endArrow=block;rounded=0;" parent="1" source="s5ElTUS3fv4YaKfRwLbb-26" target="lVmgvT4mVXbGSSPLRBOS-12" edge="1">
          <mxGeometry x="0.0319" y="-10" width="80" relative="1" as="geometry">
            <mxPoint x="880" y="1170" as="sourcePoint" />
            <mxPoint x="960" y="1170" as="targetPoint" />
            <Array as="points">
              <mxPoint x="990" y="1190" />
            </Array>
            <mxPoint as="offset" />
          </mxGeometry>
        </mxCell>
        <mxCell id="XwMzZH47hB3hkocmcAcB-1" value="&amp;nbsp;:GameManager" style="shape=umlLifeline;perimeter=lifelinePerimeter;whiteSpace=wrap;html=1;container=1;dropTarget=0;collapsible=0;recursiveResize=0;outlineConnect=0;portConstraint=eastwest;newEdgeStyle={&quot;edgeStyle&quot;:&quot;elbowEdgeStyle&quot;,&quot;elbow&quot;:&quot;vertical&quot;,&quot;curved&quot;:0,&quot;rounded&quot;:0};size=20;" vertex="1" parent="1">
          <mxGeometry x="1160" y="130" width="100" height="1350" as="geometry" />
        </mxCell>
        <mxCell id="XwMzZH47hB3hkocmcAcB-2" value="" style="html=1;points=[];perimeter=orthogonalPerimeter;outlineConnect=0;targetShapes=umlLifeline;portConstraint=eastwest;newEdgeStyle={&quot;edgeStyle&quot;:&quot;elbowEdgeStyle&quot;,&quot;elbow&quot;:&quot;vertical&quot;,&quot;curved&quot;:0,&quot;rounded&quot;:0};" vertex="1" parent="XwMzZH47hB3hkocmcAcB-1">
          <mxGeometry x="45" y="470" width="10" height="30" as="geometry" />
        </mxCell>
        <mxCell id="XwMzZH47hB3hkocmcAcB-3" value="dispatch" style="html=1;verticalAlign=bottom;endArrow=block;edgeStyle=elbowEdgeStyle;elbow=vertical;curved=0;rounded=0;" edge="1" parent="1" source="s5ElTUS3fv4YaKfRwLbb-15" target="XwMzZH47hB3hkocmcAcB-2">
          <mxGeometry width="80" relative="1" as="geometry">
            <mxPoint x="840" y="560" as="sourcePoint" />
            <mxPoint x="1210" y="590" as="targetPoint" />
            <Array as="points">
              <mxPoint x="990" y="600" />
            </Array>
          </mxGeometry>
        </mxCell>
        <mxCell id="XwMzZH47hB3hkocmcAcB-4" value="return" style="html=1;verticalAlign=bottom;endArrow=open;dashed=1;endSize=8;edgeStyle=elbowEdgeStyle;elbow=vertical;curved=0;rounded=0;" edge="1" parent="1" source="XwMzZH47hB3hkocmcAcB-2" target="s5ElTUS3fv4YaKfRwLbb-15">
          <mxGeometry relative="1" as="geometry">
            <mxPoint x="1210.0000000000002" y="640.0037837837838" as="sourcePoint" />
            <mxPoint x="775" y="640.2" as="targetPoint" />
            <Array as="points">
              <mxPoint x="990" y="630" />
            </Array>
          </mxGeometry>
        </mxCell>
      </root>
    </mxGraphModel>
  </diagram>
</mxfile>
